<svg width="720" height="820" viewBox="0 0 720 820" fill="none" xmlns="http://www.w3.org/2000/svg" role="img" aria-labelledby="title desc">
  <title id="title">Brand moodboard placeholder</title>
  <desc id="desc">Abstract creative agency moodboard with warm cream, deep green and burnt orange shapes.</desc>
  <rect width="720" height="820" rx="44" fill="#F6EFE5"/>
  <circle cx="570" cy="126" r="98" fill="#C76635" opacity="0.9"/>
  <rect x="72" y="88" width="310" height="230" rx="28" fill="#143D2F"/>
  <path d="M112 260C150 172 218 138 315 156" stroke="#FFF3DF" stroke-width="18" stroke-linecap="round"/>
  <rect x="410" y="262" width="206" height="294" rx="103" fill="#DFE7D8"/>
  <rect x="86" y="380" width="270" height="330" rx="32" fill="#FFF3DF" stroke="#143D2F" stroke-width="4"/>
  <circle cx="222" cy="510" r="72" fill="#C76635"/>
  <path d="M151 622H292" stroke="#143D2F" stroke-width="16" stroke-linecap="round"/>
  <path d="M172 662H270" stroke="#143D2F" stroke-width="16" stroke-linecap="round" opacity="0.55"/>
  <path d="M457 642C484 598 540 590 583 620C622 647 631 703 603 738C574 774 516 774 480 740C451 712 438 673 457 642Z" fill="#143D2F"/>
  <path d="M504 665L560 717" stroke="#FFF3DF" stroke-width="14" stroke-linecap="round"/>
  <path d="M560 665L504 717" stroke="#FFF3DF" stroke-width="14" stroke-linecap="round"/>
</svg>
